<?xml version="1.0" encoding="UTF-8"?>
<!DOCTYPE svg PUBLIC "-//W3C//DTD SVG 1.1//EN" "http://www.w3.org/Graphics/SVG/1.1/DTD/svg11.dtd">
<svg xmlns="http://www.w3.org/2000/svg" version="1.1" width="365px" height="223px" style="shape-rendering:geometricPrecision; text-rendering:geometricPrecision; image-rendering:optimizeQuality; fill-rule:evenodd; clip-rule:evenodd" xmlns:xlink="http://www.w3.org/1999/xlink">
<g><path style="opacity:1" fill="#2f018e" d="M -0.5,-0.5 C 121.167,-0.5 242.833,-0.5 364.5,-0.5C 364.5,73.8333 364.5,148.167 364.5,222.5C 242.833,222.5 121.167,222.5 -0.5,222.5C -0.5,218.167 -0.5,213.833 -0.5,209.5C 50.7435,209.171 102.077,209.504 153.5,210.5C 153.338,208.473 153.505,206.473 154,204.5C 155.971,201.362 158.471,198.695 161.5,196.5C 168.462,199.277 175.296,198.944 182,195.5C 183,198.167 184,198.167 185,195.5C 185.77,196.598 186.603,196.598 187.5,195.5C 187.5,195.833 187.5,196.167 187.5,196.5C 198.298,198.223 209.298,198.723 220.5,198C 221.527,197.487 222.527,196.987 223.5,196.5C 228.695,196.821 233.695,196.487 238.5,195.5C 237.496,194.317 236.662,192.984 236,191.5C 235.024,180.742 235.524,170.075 237.5,159.5C 239.776,161.351 242.109,163.018 244.5,164.5C 243.174,164.205 241.841,164.705 240.5,166C 241.572,167.284 242.905,167.617 244.5,167C 244.974,168.729 245.974,169.895 247.5,170.5C 249.606,174.491 250.939,178.824 251.5,183.5C 251.62,186.48 252.287,189.313 253.5,192C 252.5,194.091 253.167,195.757 255.5,197C 254.833,197.333 254.167,197.667 253.5,198C 254.574,198.739 255.241,199.739 255.5,201C 254.137,204.09 252.97,207.256 252,210.5C 249.871,209.137 249.371,209.471 250.5,211.5C 249.726,212.711 248.893,212.711 248,211.5C 247.729,215.13 246.062,216.13 243,214.5C 241.053,215.11 239.219,215.943 237.5,217C 238.469,218.758 239.636,219.258 241,218.5C 242.525,219.72 244.359,220.387 246.5,220.5C 250.509,220.986 253.509,219.486 255.5,216C 256.448,215.517 257.448,215.351 258.5,215.5C 257.789,211.675 258.955,208.675 262,206.5C 262.49,205.207 262.657,203.873 262.5,202.5C 263.675,202.719 264.675,202.386 265.5,201.5C 263.965,197.344 264.799,193.678 268,190.5C 269.099,193.044 270.265,193.044 271.5,190.5C 270.675,189.614 269.675,189.281 268.5,189.5C 268.586,185.143 268.92,180.81 269.5,176.5C 269.858,173.733 270.525,171.067 271.5,168.5C 271.921,163.757 274.255,160.424 278.5,158.5C 284.402,158.103 290.069,157.103 295.5,155.5C 338.353,142.508 358.519,113.508 356,68.5C 352.153,44.8647 339.986,27.1981 319.5,15.5C 312.129,9.97935 303.796,6.47935 294.5,5C 254.909,0.210784 226.409,15.7108 209,51.5C 206.61,57.8195 204.776,64.1528 203.5,70.5C 202.676,74.3123 202.176,78.3123 202,82.5C 201.329,81.7476 200.496,81.4142 199.5,81.5C 199.167,81.5 198.833,81.5 198.5,81.5C 197.351,81.7911 196.684,82.6244 196.5,84C 195.923,86.137 195.59,88.3037 195.5,90.5C 192.195,90.7462 189.861,92.4128 188.5,95.5C 188.719,97.9153 190.052,98.9153 192.5,98.5C 192.19,109.219 192.523,119.885 193.5,130.5C 193.192,131.308 192.692,131.975 192,132.5C 191.107,131.289 190.274,131.289 189.5,132.5C 190.289,134.488 191.455,134.821 193,133.5C 194.648,134.717 196.481,135.55 198.5,136C 198.043,136.414 197.709,136.914 197.5,137.5C 199.289,139.202 200.955,139.369 202.5,138C 201.833,137.333 201.167,136.667 200.5,136C 201.729,134.471 203.229,133.304 205,132.5C 205.49,131.207 205.657,129.873 205.5,128.5C 204.167,128.5 202.833,128.5 201.5,128.5C 201.5,126.167 201.5,123.833 201.5,121.5C 203.074,121.937 204.241,122.937 205,124.5C 207.052,122.48 206.885,120.813 204.5,119.5C 203.914,119.709 203.414,120.043 203,120.5C 202.333,117.5 202.333,114.5 203,111.5C 203.772,112.849 204.939,113.682 206.5,114C 207.167,117.667 207.833,121.333 208.5,125C 208.167,125.333 207.833,125.667 207.5,126C 209.752,127.087 211.085,128.921 211.5,131.5C 214.187,130.939 214.187,131.606 211.5,133.5C 208.021,132.281 206.021,133.615 205.5,137.5C 206.833,139.5 206.833,141.5 205.5,143.5C 205.453,145 206.119,146 207.5,146.5C 208.178,156.393 208.845,166.227 209.5,176C 208.74,177.441 208.074,178.941 207.5,180.5C 208.6,184.442 208.767,188.442 208,192.5C 207.667,190.833 207.333,189.167 207,187.5C 206.223,189.701 205.056,189.701 203.5,187.5C 203.589,185.234 204.423,182.901 206,180.5C 206.667,172.833 206.667,165.167 206,157.5C 205.667,157.167 205.333,156.833 205,156.5C 200.699,160.967 199.365,166.3 201,172.5C 201.944,173.263 202.444,174.263 202.5,175.5C 201.185,178.342 200.185,181.342 199.5,184.5C 198.143,182.435 196.81,180.435 195.5,178.5C 190.734,167.05 186.234,155.384 182,143.5C 179.342,142.306 178.176,143.306 178.5,146.5C 177.687,148.261 176.687,149.928 175.5,151.5C 172.695,155.39 170.695,159.89 169.5,165C 170.233,166.766 170.567,168.599 170.5,170.5C 169.167,170.5 167.833,170.5 166.5,170.5C 166.371,172.216 166.038,173.883 165.5,175.5C 163.234,175.141 161.401,175.808 160,177.5C 156.436,174.65 153.602,171.316 151.5,167.5C 150.347,164.53 148.68,161.863 146.5,159.5C 145.284,157.549 143.618,156.049 141.5,155C 134.277,152.926 127.277,150.259 120.5,147C 119.117,145.729 118.117,144.229 117.5,142.5C 117.369,141.761 117.536,141.094 118,140.5C 125.868,135.562 127.702,128.895 123.5,120.5C 123.334,116.486 123.501,112.486 124,108.5C 125.667,111.5 127.333,114.5 129,117.5C 129.249,116.376 129.749,115.376 130.5,114.5C 132.321,115.728 133.321,117.394 133.5,119.5C 137.001,120.878 140.668,121.545 144.5,121.5C 146.952,121.461 148.952,120.794 150.5,119.5C 151.167,118.833 151.833,118.167 152.5,117.5C 153.167,117.167 153.833,116.833 154.5,116.5C 155.649,116.791 156.316,117.624 156.5,119C 156.057,120.825 155.723,122.658 155.5,124.5C 152.988,124.423 150.988,125.423 149.5,127.5C 149.709,128.086 150.043,128.586 150.5,129C 146.453,131.673 142.119,132.173 137.5,130.5C 136.308,131.566 136.641,132.399 138.5,133C 142.358,133.81 146.024,133.643 149.5,132.5C 156.256,130.918 161.089,126.918 164,120.5C 168.096,108.356 167.096,96.6895 161,85.5C 154.779,78.5579 147.279,76.7245 138.5,80C 135.283,81.7155 132.95,84.2155 131.5,87.5C 129.314,88.8233 127.814,90.8233 127,93.5C 125.005,91.1713 123.838,91.838 123.5,95.5C 126.068,98.2249 125.901,100.558 123,102.5C 122.5,100 122,97.5 121.5,95C 121.439,93.2894 122.106,91.956 123.5,91C 123.002,89.8419 122.169,89.0085 121,88.5C 117.646,89.6721 114.479,91.0054 111.5,92.5C 111.5,92.8333 111.5,93.1667 111.5,93.5C 110.167,93.5 108.833,93.5 107.5,93.5C 107.5,94.5 107.5,95.5 107.5,96.5C 104.813,96.3359 102.146,96.5026 99.5,97C 94.6314,99.2316 89.798,101.398 85,103.5C 84.3333,105.5 83.6667,107.5 83,109.5C 82.3333,120.167 82.3333,130.833 83,141.5C 84.1096,143.037 85.6096,143.703 87.5,143.5C 91.7016,143.183 95.7016,143.517 99.5,144.5C 98.3249,145.974 97.3249,147.64 96.5,149.5C 95.5832,150.127 94.5832,150.461 93.5,150.5C 88.5223,150.703 83.8557,152.037 79.5,154.5C 78.0357,157.003 76.869,159.67 76,162.5C 74.8869,163.711 73.7202,163.711 72.5,162.5C 72.1667,163 71.8333,163.5 71.5,164C 72.9486,166.937 72.1152,169.104 69,170.5C 65.5341,168.65 63.7007,169.65 63.5,173.5C 62.5,173.5 61.5,173.5 60.5,173.5C 60.7733,171.549 60.1066,170.049 58.5,169C 42.1667,168.667 25.8333,168.333 9.5,168C 8.42138,167.044 7.25471,166.211 6,165.5C 5.54392,166.744 6.04392,167.577 7.5,168C 6.19551,168.804 5.52884,169.971 5.5,171.5C 7.5145,173.707 8.5145,176.373 8.5,179.5C 10.6636,179.721 12.3303,180.721 13.5,182.5C 13.9423,185.343 14.9423,188.009 16.5,190.5C 16.9569,191.298 17.6236,191.631 18.5,191.5C 20.8308,194.528 22.8308,197.862 24.5,201.5C 24.6716,202.492 24.3382,203.158 23.5,203.5C 16.1667,203.5 8.83333,203.5 1.5,203.5C 0.833333,203.5 0.166667,203.5 -0.5,203.5C -0.5,135.5 -0.5,67.5 -0.5,-0.5 Z"/></g>
<g><path style="opacity:1" fill="#2f028d" d="M 319.5,15.5 C 336.267,27.1117 347.434,42.7784 353,62.5C 354.299,68.1191 354.632,73.7858 354,79.5C 349.934,78.5363 345.767,78.203 341.5,78.5C 341.5,79.5 341.5,80.5 341.5,81.5C 345.767,81.797 349.934,81.4637 354,80.5C 353.358,112.631 338.525,135.464 309.5,149C 288.914,156.693 268.581,156.193 248.5,147.5C 247.972,146.279 247.305,145.113 246.5,144C 248.107,142.951 248.773,141.451 248.5,139.5C 249.397,138.402 250.23,138.402 251,139.5C 251.497,136.854 251.664,134.187 251.5,131.5C 248.109,131.703 245.109,130.703 242.5,128.5C 248.239,120.393 248.906,112.059 244.5,103.5C 236.857,92.8692 227.191,90.7025 215.5,97C 213.192,99.1277 211.526,101.628 210.5,104.5C 199.184,65.9583 210.518,35.7917 244.5,14C 269.763,2.28035 294.763,2.78035 319.5,15.5 Z"/></g>
<g><path style="opacity:1" fill="#9790e5" d="M 278.5,6.5 C 279.5,6.5 280.5,6.5 281.5,6.5C 281.5,10.5 281.5,14.5 281.5,18.5C 280.5,18.5 279.5,18.5 278.5,18.5C 278.5,14.5 278.5,10.5 278.5,6.5 Z"/></g>
<g><path style="opacity:1" fill="#938cdf" d="M 314.5,16.5 C 315.5,16.5 316.5,16.5 317.5,16.5C 316.74,20.0266 315.406,23.36 313.5,26.5C 312.675,27.3857 311.675,27.719 310.5,27.5C 311.001,23.5046 312.334,19.8379 314.5,16.5 Z"/></g>
<g><path style="opacity:1" fill="#9287e1" d="M 242.5,16.5 C 243.822,16.33 244.989,16.6634 246,17.5C 247.753,20.0048 249.253,22.6714 250.5,25.5C 249.711,27.4879 248.545,27.8213 247,26.5C 245.191,23.2221 243.691,19.8888 242.5,16.5 Z"/></g>
<g><path style="opacity:1" fill="#9387e1" d="M 340.5,42.5 C 345.384,42.8964 345.718,44.3964 341.5,47C 338.691,48.7411 335.691,49.9078 332.5,50.5C 332.281,49.325 332.614,48.325 333.5,47.5C 336.077,46.0569 338.41,44.3902 340.5,42.5 Z"/></g>
<g><path style="opacity:1" fill="#9489e4" d="M 216.5,42.5 C 220.127,43.2796 223.46,44.7796 226.5,47C 227.337,48.0113 227.67,49.1779 227.5,50.5C 224.111,49.3091 220.778,47.8091 217.5,46C 216.663,44.9887 216.33,43.8221 216.5,42.5 Z"/></g>
<g><path style="opacity:1" fill="#2b0d82" d="M 288.5,79.5 C 286.901,79.7678 285.568,79.4345 284.5,78.5C 284.189,77.5222 283.522,76.8555 282.5,76.5C 281.833,64.8333 281.167,53.1667 280.5,41.5C 279.668,52.8187 279.168,64.152 279,75.5C 276.653,72.8057 274.82,69.8057 273.5,66.5C 274.735,66.7214 275.735,67.3881 276.5,68.5C 277.192,67.9747 277.692,67.3081 278,66.5C 278.333,57.5 278.667,48.5 279,39.5C 280,36.8333 281,36.8333 282,39.5C 282.168,50.848 282.668,62.1813 283.5,73.5C 284.606,76.1346 286.273,78.1346 288.5,79.5 Z"/></g>
<g><path style="opacity:1" fill="#8c79dd" d="M 273.5,66.5 C 274.82,69.8057 276.653,72.8057 279,75.5C 279.168,64.152 279.668,52.8187 280.5,41.5C 281.167,53.1667 281.833,64.8333 282.5,76.5C 283.522,76.8555 284.189,77.5222 284.5,78.5C 281.833,78.5 279.167,78.5 276.5,78.5C 275.624,74.4179 273.957,70.7512 271.5,67.5C 266.851,58.2012 261.684,49.2012 256,40.5C 254.374,37.9417 253.374,35.275 253,32.5C 260.111,43.7309 266.944,55.0642 273.5,66.5 Z"/></g>
<g><path style="opacity:1" fill="#8d79de" d="M 319.5,15.5 C 294.763,2.78035 269.763,2.28035 244.5,14C 210.518,35.7917 199.184,65.9583 210.5,104.5C 209.555,109.405 209.221,114.405 209.5,119.5C 208.674,115.018 208.174,110.351 208,105.5C 207.218,102.69 206.384,100.023 205.5,97.5C 203.963,88.5743 203.296,79.5743 203.5,70.5C 204.776,64.1528 206.61,57.8195 209,51.5C 226.409,15.7108 254.909,0.210784 294.5,5C 303.796,6.47935 312.129,9.97935 319.5,15.5 Z"/></g>
<g><path style="opacity:1" fill="#978ce6" d="M 206.5,78.5 C 211.032,78.0692 215.365,78.5692 219.5,80C 215.365,81.4308 211.032,81.9308 206.5,81.5C 206.5,80.5 206.5,79.5 206.5,78.5 Z"/></g>
<g><path style="opacity:1" fill="#f6eefb" d="M 276.5,78.5 C 279.167,78.5 281.833,78.5 284.5,78.5C 285.568,79.4345 286.901,79.7678 288.5,79.5C 291.482,81.2415 294.815,82.2415 298.5,82.5C 301.265,82.4685 303.598,81.4685 305.5,79.5C 307.279,83.0964 306.279,85.5964 302.5,87C 299.833,87.6667 297.167,87.6667 294.5,87C 290.294,85.3196 285.961,84.1529 281.5,83.5C 279.159,83.3631 277.159,84.0298 275.5,85.5C 274.566,84.4324 274.232,83.099 274.5,81.5C 274.782,80.2223 275.449,79.2223 276.5,78.5 Z"/></g>
<g><path style="opacity:1" fill="#320889" d="M 148.5,131.5 C 144.57,133.048 140.903,132.715 137.5,130.5C 142.119,132.173 146.453,131.673 150.5,129C 150.043,128.586 149.709,128.086 149.5,127.5C 150.988,125.423 152.988,124.423 155.5,124.5C 155.723,122.658 156.057,120.825 156.5,119C 156.316,117.624 155.649,116.791 154.5,116.5C 156.347,113.406 156.847,110.072 156,106.5C 153.342,102.843 150.342,99.5092 147,96.5C 146.503,94.1902 146.337,91.8568 146.5,89.5C 141.849,90.1742 140.349,92.8408 142,97.5C 144.667,101.5 148,104.833 152,107.5C 152.601,109.137 153.101,110.803 153.5,112.5C 152.813,114.177 152.146,115.844 151.5,117.5C 148.23,119.16 144.897,119.494 141.5,118.5C 139.983,118.489 138.816,117.823 138,116.5C 132.845,106.817 132.178,96.8175 136,86.5C 142.82,77.2221 149.82,77.2221 157,86.5C 161.92,99.6746 161.586,112.675 156,125.5C 153.894,128.118 151.394,130.118 148.5,131.5 Z"/></g>
<g><path style="opacity:1" fill="#ae8de3" d="M 274.5,81.5 C 274.232,83.099 274.566,84.4324 275.5,85.5C 275.334,89.8461 275.501,94.1794 276,98.5C 277.129,96.8588 278.629,95.8588 280.5,95.5C 279.367,98.9709 277.033,100.971 273.5,101.5C 273.176,94.6457 273.509,87.979 274.5,81.5 Z"/></g>
<g><path style="opacity:1" fill="#310984" d="M 307.5,101.5 C 302.012,94.2601 294.679,91.0934 285.5,92C 283.416,92.6972 281.749,93.8639 280.5,95.5C 278.629,95.8588 277.129,96.8588 276,98.5C 275.501,94.1794 275.334,89.8461 275.5,85.5C 277.159,84.0298 279.159,83.3631 281.5,83.5C 285.961,84.1529 290.294,85.3196 294.5,87C 297.167,87.6667 299.833,87.6667 302.5,87C 306.279,85.5964 307.279,83.0964 305.5,79.5C 303.598,81.4685 301.265,82.4685 298.5,82.5C 294.815,82.2415 291.482,81.2415 288.5,79.5C 291.885,79.8457 295.218,80.5123 298.5,81.5C 300.135,80.9537 301.801,80.6204 303.5,80.5C 303.5,79.5 303.5,78.5 303.5,77.5C 307.741,76.9092 309.407,78.7425 308.5,83C 308.314,85.8532 307.314,88.3532 305.5,90.5C 306.833,91.8333 308.167,93.1667 309.5,94.5C 308.675,95.3857 307.675,95.719 306.5,95.5C 306.833,97.5 307.167,99.5 307.5,101.5 Z"/></g>
<g><path style="opacity:1" fill="#2f0684" d="M 131.5,87.5 C 130.89,88.391 130.557,89.391 130.5,90.5C 128.994,93.356 128.328,96.5226 128.5,100C 128.504,102.361 128.837,104.527 129.5,106.5C 130.66,112.991 134.327,117.324 140.5,119.5C 143.698,120.7 147.031,120.7 150.5,119.5C 148.952,120.794 146.952,121.461 144.5,121.5C 140.668,121.545 137.001,120.878 133.5,119.5C 133.321,117.394 132.321,115.728 130.5,114.5C 129.749,115.376 129.249,116.376 129,117.5C 127.333,114.5 125.667,111.5 124,108.5C 123.501,112.486 123.334,116.486 123.5,120.5C 123.167,120.5 122.833,120.5 122.5,120.5C 122.665,117.482 122.498,114.482 122,111.5C 121.8,109.68 120.966,108.347 119.5,107.5C 119.148,102.901 118.982,98.2343 119,93.5C 116.619,92.565 114.119,92.2317 111.5,92.5C 114.479,91.0054 117.646,89.6721 121,88.5C 122.169,89.0085 123.002,89.8419 123.5,91C 122.106,91.956 121.439,93.2894 121.5,95C 122,97.5 122.5,100 123,102.5C 125.901,100.558 126.068,98.2249 123.5,95.5C 123.838,91.838 125.005,91.1713 127,93.5C 127.814,90.8233 129.314,88.8233 131.5,87.5 Z"/></g>
<g><path style="opacity:1" fill="#310a83" d="M 271.5,67.5 C 273.957,70.7512 275.624,74.4179 276.5,78.5C 275.449,79.2223 274.782,80.2223 274.5,81.5C 273.509,87.979 273.176,94.6457 273.5,101.5C 277.033,100.971 279.367,98.9709 280.5,95.5C 285.866,92.8879 291.199,93.0545 296.5,96C 297.71,97.0391 298.71,98.2058 299.5,99.5C 296.833,98.8333 294.167,98.1667 291.5,97.5C 291.325,100.329 292.658,101.996 295.5,102.5C 295.167,103.5 294.5,104.167 293.5,104.5C 291.677,103.253 289.677,102.586 287.5,102.5C 287.5,101.5 287.5,100.5 287.5,99.5C 286.07,99.5792 284.736,99.2458 283.5,98.5C 282.088,99.8064 280.421,100.64 278.5,101C 277.939,102.676 276.939,104.009 275.5,105C 278.711,106.153 282.044,106.82 285.5,107C 289.732,108.44 290.399,110.773 287.5,114C 281.084,112.76 278.251,115.26 279,121.5C 279.483,124.823 280.983,127.49 283.5,129.5C 287.445,130.491 291.445,130.824 295.5,130.5C 282.523,134.553 276.523,129.553 277.5,115.5C 279.494,111.63 282.494,110.63 286.5,112.5C 287.731,111.349 287.731,110.183 286.5,109C 280.496,106.203 275.496,107.369 271.5,112.5C 271.5,111.167 271.5,109.833 271.5,108.5C 275.099,108.738 275.433,107.738 272.5,105.5C 272.709,104.914 273.043,104.414 273.5,104C 270.753,94.6058 271.087,85.2724 274.5,76C 272.566,73.4976 271.566,70.6643 271.5,67.5 Z"/></g>
<g><path style="opacity:1" fill="#c0a9e6" d="M 130.5,90.5 C 129.725,95.7968 129.392,101.13 129.5,106.5C 128.837,104.527 128.504,102.361 128.5,100C 128.328,96.5226 128.994,93.356 130.5,90.5 Z"/></g>
<g><path style="opacity:1" fill="#361182" d="M 203.5,70.5 C 203.296,79.5743 203.963,88.5743 205.5,97.5C 204.178,97.33 203.011,97.6634 202,98.5C 201.5,106.159 201.334,113.826 201.5,121.5C 201.5,123.833 201.5,126.167 201.5,128.5C 202.833,128.5 204.167,128.5 205.5,128.5C 205.657,129.873 205.49,131.207 205,132.5C 203.229,133.304 201.729,134.471 200.5,136C 201.167,136.667 201.833,137.333 202.5,138C 200.955,139.369 199.289,139.202 197.5,137.5C 197.709,136.914 198.043,136.414 198.5,136C 196.481,135.55 194.648,134.717 193,133.5C 191.455,134.821 190.289,134.488 189.5,132.5C 190.274,131.289 191.107,131.289 192,132.5C 192.692,131.975 193.192,131.308 193.5,130.5C 192.523,119.885 192.19,109.219 192.5,98.5C 190.052,98.9153 188.719,97.9153 188.5,95.5C 189.861,92.4128 192.195,90.7462 195.5,90.5C 195.59,88.3037 195.923,86.137 196.5,84C 196.684,82.6244 197.351,81.7911 198.5,81.5C 199.081,88.5296 196.081,93.0296 189.5,95C 191.134,95.4935 192.801,95.6602 194.5,95.5C 194.333,107.171 194.5,118.838 195,130.5C 195.479,132.646 196.812,133.646 199,133.5C 201.37,133.4 203.203,132.4 204.5,130.5C 203.119,131.232 201.452,131.232 199.5,130.5C 199.5,130.167 199.5,129.833 199.5,129.5C 199.5,118.167 199.5,106.833 199.5,95.5C 204.833,95.1667 204.833,94.8333 199.5,94.5C 199.5,90.1667 199.5,85.8333 199.5,81.5C 200.496,81.4142 201.329,81.7476 202,82.5C 202.176,78.3123 202.676,74.3123 203.5,70.5 Z"/></g>
<g><path style="opacity:1" fill="#120f12" d="M 111.5,93.5 C 113.792,93.2436 115.959,93.5769 118,94.5C 118.499,97.5182 118.332,100.518 117.5,103.5C 117.34,105.355 118.007,106.688 119.5,107.5C 119.719,112.249 120.719,116.583 122.5,120.5C 123.481,125.129 123.648,129.796 123,134.5C 120.14,136.502 117.64,138.835 115.5,141.5C 114.209,141.263 113.209,141.596 112.5,142.5C 111.5,142.5 110.5,142.5 109.5,142.5C 109.623,136.398 108.957,130.398 107.5,124.5C 99.8578,123.264 93.6911,119.598 89,113.5C 87.7951,116.562 86.6284,119.562 85.5,122.5C 85.5,126.833 85.5,131.167 85.5,135.5C 84.1782,126.658 84.1782,117.658 85.5,108.5C 91.646,101.701 99.3127,97.7014 108.5,96.5C 109.993,95.8589 110.993,94.8589 111.5,93.5 Z"/></g>
<g><path style="opacity:1" fill="#ebdef5" d="M 307.5,101.5 C 310.262,108.559 310.095,115.559 307,122.5C 304.621,126.38 301.454,129.38 297.5,131.5C 296.833,131.5 296.5,131.167 296.5,130.5C 303.517,121.968 305.35,112.301 302,101.5C 301.292,100.619 300.458,99.9528 299.5,99.5C 298.71,98.2058 297.71,97.0391 296.5,96C 291.199,93.0545 285.866,92.8879 280.5,95.5C 281.749,93.8639 283.416,92.6972 285.5,92C 294.679,91.0934 302.012,94.2601 307.5,101.5 Z"/></g>
<g><path style="opacity:1" fill="#e4d1fc" d="M 198.5,81.5 C 198.833,81.5 199.167,81.5 199.5,81.5C 199.5,85.8333 199.5,90.1667 199.5,94.5C 204.833,94.8333 204.833,95.1667 199.5,95.5C 199.5,106.833 199.5,118.167 199.5,129.5C 198.833,117.327 198.167,104.993 197.5,92.5C 196.914,92.7093 196.414,93.0426 196,93.5C 195.333,105.5 195.333,117.5 196,129.5C 197.018,132.642 198.185,132.976 199.5,130.5C 201.452,131.232 203.119,131.232 204.5,130.5C 203.203,132.4 201.37,133.4 199,133.5C 196.812,133.646 195.479,132.646 195,130.5C 194.5,118.838 194.333,107.171 194.5,95.5C 192.801,95.6602 191.134,95.4935 189.5,95C 196.081,93.0296 199.081,88.5296 198.5,81.5 Z"/></g>
<g><path style="opacity:1" fill="#fefbfd" d="M 199.5,129.5 C 199.5,129.833 199.5,130.167 199.5,130.5C 198.185,132.976 197.018,132.642 196,129.5C 195.333,117.5 195.333,105.5 196,93.5C 196.414,93.0426 196.914,92.7093 197.5,92.5C 198.167,104.993 198.833,117.327 199.5,129.5 Z"/></g>
<g><path style="opacity:1" fill="#1d0749" d="M 111.5,93.5 C 111.5,93.1667 111.5,92.8333 111.5,92.5C 114.119,92.2317 116.619,92.565 119,93.5C 118.982,98.2343 119.148,102.901 119.5,107.5C 118.007,106.688 117.34,105.355 117.5,103.5C 118.332,100.518 118.499,97.5182 118,94.5C 115.959,93.5769 113.792,93.2436 111.5,93.5 Z"/></g>
<g><path style="opacity:1" fill="#fcf8fc" d="M 209.5,119.5 C 209.221,114.405 209.555,109.405 210.5,104.5C 211.15,104.196 211.817,103.863 212.5,103.5C 213.664,110.142 213.831,116.808 213,123.5C 211.968,121.973 210.801,120.64 209.5,119.5 Z"/></g>
<g><path style="opacity:1" fill="#2f028c" d="M 299.5,99.5 C 300.458,99.9528 301.292,100.619 302,101.5C 305.35,112.301 303.517,121.968 296.5,130.5C 296.167,130.5 295.833,130.5 295.5,130.5C 291.445,130.824 287.445,130.491 283.5,129.5C 280.983,127.49 279.483,124.823 279,121.5C 278.251,115.26 281.084,112.76 287.5,114C 290.399,110.773 289.732,108.44 285.5,107C 282.044,106.82 278.711,106.153 275.5,105C 276.939,104.009 277.939,102.676 278.5,101C 280.421,100.64 282.088,99.8064 283.5,98.5C 284.736,99.2458 286.07,99.5792 287.5,99.5C 287.5,100.5 287.5,101.5 287.5,102.5C 289.677,102.586 291.677,103.253 293.5,104.5C 294.5,104.167 295.167,103.5 295.5,102.5C 292.658,101.996 291.325,100.329 291.5,97.5C 294.167,98.1667 296.833,98.8333 299.5,99.5 Z"/></g>
<g><path style="opacity:1" fill="#f8f1fb" d="M 277.5,115.5 C 276.521,118.625 276.187,121.958 276.5,125.5C 275.5,125.5 274.5,125.5 273.5,125.5C 271.72,121.404 271.054,117.071 271.5,112.5C 275.496,107.369 280.496,106.203 286.5,109C 287.731,110.183 287.731,111.349 286.5,112.5C 282.494,110.63 279.494,111.63 277.5,115.5 Z"/></g>
<g><path style="opacity:1" fill="#948ae2" d="M 333.5,109.5 C 337.441,111.14 341.108,113.306 344.5,116C 343.892,116.87 343.059,117.37 342,117.5C 339.262,115.88 336.428,114.38 333.5,113C 332.316,111.855 332.316,110.688 333.5,109.5 Z"/></g>
<g><path style="opacity:1" fill="#1f094a" d="M 119.5,107.5 C 120.966,108.347 121.8,109.68 122,111.5C 122.498,114.482 122.665,117.482 122.5,120.5C 120.719,116.583 119.719,112.249 119.5,107.5 Z"/></g>
<g><path style="opacity:1" fill="#2a0675" d="M 111.5,93.5 C 110.993,94.8589 109.993,95.8589 108.5,96.5C 99.3127,97.7014 91.646,101.701 85.5,108.5C 84.1782,117.658 84.1782,126.658 85.5,135.5C 85.5,135.833 85.5,136.167 85.5,136.5C 86.0147,138.894 86.6814,141.228 87.5,143.5C 85.6096,143.703 84.1096,143.037 83,141.5C 82.3333,130.833 82.3333,120.167 83,109.5C 83.6667,107.5 84.3333,105.5 85,103.5C 89.798,101.398 94.6314,99.2316 99.5,97C 102.146,96.5026 104.813,96.3359 107.5,96.5C 107.5,95.5 107.5,94.5 107.5,93.5C 108.833,93.5 110.167,93.5 111.5,93.5 Z"/></g>
<g><path style="opacity:1" fill="#c5a1f2" d="M 151.5,117.5 C 151.833,117.5 152.167,117.5 152.5,117.5C 151.833,118.167 151.167,118.833 150.5,119.5C 147.031,120.7 143.698,120.7 140.5,119.5C 141.167,119.5 141.5,119.167 141.5,118.5C 144.897,119.494 148.23,119.16 151.5,117.5 Z"/></g>
<g><path style="opacity:1" fill="#eee2f7" d="M 149.5,132.5 C 148.833,132.5 148.5,132.167 148.5,131.5C 151.394,130.118 153.894,128.118 156,125.5C 161.586,112.675 161.92,99.6746 157,86.5C 149.82,77.2221 142.82,77.2221 136,86.5C 132.178,96.8175 132.845,106.817 138,116.5C 138.816,117.823 139.983,118.489 141.5,118.5C 141.5,119.167 141.167,119.5 140.5,119.5C 134.327,117.324 130.66,112.991 129.5,106.5C 129.392,101.13 129.725,95.7968 130.5,90.5C 130.557,89.391 130.89,88.391 131.5,87.5C 132.95,84.2155 135.283,81.7155 138.5,80C 147.279,76.7245 154.779,78.5579 161,85.5C 167.096,96.6895 168.096,108.356 164,120.5C 161.089,126.918 156.256,130.918 149.5,132.5 Z"/></g>
<g><path style="opacity:1" fill="#efe3f8" d="M 154.5,116.5 C 153.833,116.833 153.167,117.167 152.5,117.5C 152.167,117.5 151.833,117.5 151.5,117.5C 152.146,115.844 152.813,114.177 153.5,112.5C 153.101,110.803 152.601,109.137 152,107.5C 148,104.833 144.667,101.5 142,97.5C 140.349,92.8408 141.849,90.1742 146.5,89.5C 146.337,91.8568 146.503,94.1902 147,96.5C 150.342,99.5092 153.342,102.843 156,106.5C 156.847,110.072 156.347,113.406 154.5,116.5 Z"/></g>
<g><path style="opacity:1" fill="#e2d3f3" d="M 244.5,103.5 C 247.705,114.194 245.371,123.36 237.5,131C 234.688,132.549 231.688,133.382 228.5,133.5C 227.5,133.5 226.5,133.5 225.5,133.5C 216.712,132.708 211.378,128.041 209.5,119.5C 210.801,120.64 211.968,121.973 213,123.5C 213.831,116.808 213.664,110.142 212.5,103.5C 211.817,103.863 211.15,104.196 210.5,104.5C 211.526,101.628 213.192,99.1277 215.5,97C 227.191,90.7025 236.857,92.8692 244.5,103.5 Z"/></g>
<g><path style="opacity:1" fill="#30058b" d="M 224.5,130.5 C 221.154,125.796 217.821,121.129 214.5,116.5C 213.407,109.179 215.074,102.679 219.5,97C 232.966,92.4273 239.966,97.4273 240.5,112C 240.894,119.421 238.56,125.754 233.5,131C 230.267,133.084 227.267,132.918 224.5,130.5 Z"/></g>
<g><path style="opacity:1" fill="#938ce2" d="M 224.5,109.5 C 225.5,109.5 226.5,109.5 227.5,109.5C 227.67,110.822 227.337,111.989 226.5,113C 223.46,115.22 220.127,116.72 216.5,117.5C 216.351,116.448 216.517,115.448 217,114.5C 219.824,113.182 222.324,111.515 224.5,109.5 Z"/></g>
<g><path style="opacity:1" fill="#c1c1c2" d="M 89.5,137.5 C 88.688,133.552 87.688,129.552 86.5,125.5C 87.601,124.2 88.9343,123.7 90.5,124C 91.9694,127.656 92.9694,131.489 93.5,135.5C 95.2352,136.057 96.9018,136.39 98.5,136.5C 98.0814,137.672 97.4147,138.672 96.5,139.5C 93.8442,138.177 91.8442,136.177 90.5,133.5C 89.5713,134.689 89.238,136.022 89.5,137.5 Z"/></g>
<g><path style="opacity:1" fill="#f1f3f3" d="M 112.5,142.5 C 114.379,142.393 114.712,142.893 113.5,144C 111.564,144.813 109.564,145.313 107.5,145.5C 107.785,147.288 107.452,148.955 106.5,150.5C 105.524,147.861 103.857,145.861 101.5,144.5C 101.5,143.5 101.5,142.5 101.5,141.5C 97.7839,142.657 94.1172,142.657 90.5,141.5C 90.1667,140.167 89.8333,138.833 89.5,137.5C 89.238,136.022 89.5713,134.689 90.5,133.5C 91.8442,136.177 93.8442,138.177 96.5,139.5C 97.4147,138.672 98.0814,137.672 98.5,136.5C 96.9018,136.39 95.2352,136.057 93.5,135.5C 92.9694,131.489 91.9694,127.656 90.5,124C 88.9343,123.7 87.601,124.2 86.5,125.5C 86.7373,124.209 86.404,123.209 85.5,122.5C 86.6284,119.562 87.7951,116.562 89,113.5C 93.6911,119.598 99.8578,123.264 107.5,124.5C 108.957,130.398 109.623,136.398 109.5,142.5C 110.5,142.5 111.5,142.5 112.5,142.5 Z"/></g>
<g><path style="opacity:1" fill="#8f7edc" d="M 214.5,116.5 C 217.821,121.129 221.154,125.796 224.5,130.5C 223.833,130.5 223.167,130.5 222.5,130.5C 220.157,127.793 217.823,125.126 215.5,122.5C 214.539,120.735 214.205,118.735 214.5,116.5 Z"/></g>
<g><path style="opacity:1" fill="#e0caf3" d="M 277.5,115.5 C 276.523,129.553 282.523,134.553 295.5,130.5C 295.833,130.5 296.167,130.5 296.5,130.5C 296.5,131.167 296.833,131.5 297.5,131.5C 287.982,135.604 279.982,133.604 273.5,125.5C 274.5,125.5 275.5,125.5 276.5,125.5C 276.187,121.958 276.521,118.625 277.5,115.5 Z"/></g>
<g><path style="opacity:1" fill="#341e77" d="M 215.5,122.5 C 217.823,125.126 220.157,127.793 222.5,130.5C 222.565,130.938 222.399,131.272 222,131.5C 218.859,129.224 216.693,126.224 215.5,122.5 Z"/></g>
<g><path style="opacity:1" fill="#1a1819" d="M 85.5,122.5 C 86.404,123.209 86.7373,124.209 86.5,125.5C 87.688,129.552 88.688,133.552 89.5,137.5C 89.8333,138.833 90.1667,140.167 90.5,141.5C 89.7611,141.631 89.0944,141.464 88.5,141C 87.9473,139.122 86.9473,137.622 85.5,136.5C 85.5,136.167 85.5,135.833 85.5,135.5C 85.5,131.167 85.5,126.833 85.5,122.5 Z"/></g>
<g><path style="opacity:1" fill="#cfa9f4" d="M 137.5,130.5 C 140.903,132.715 144.57,133.048 148.5,131.5C 148.5,132.167 148.833,132.5 149.5,132.5C 146.024,133.643 142.358,133.81 138.5,133C 136.641,132.399 136.308,131.566 137.5,130.5 Z"/></g>
<g><path style="opacity:1" fill="#320e88" d="M 244.5,103.5 C 248.906,112.059 248.239,120.393 242.5,128.5C 245.109,130.703 248.109,131.703 251.5,131.5C 251.664,134.187 251.497,136.854 251,139.5C 250.23,138.402 249.397,138.402 248.5,139.5C 248.773,141.451 248.107,142.951 246.5,144C 247.305,145.113 247.972,146.279 248.5,147.5C 240.775,144.308 234.109,139.641 228.5,133.5C 231.688,133.382 234.688,132.549 237.5,131C 245.371,123.36 247.705,114.194 244.5,103.5 Z"/></g>
<g><path style="opacity:1" fill="#1f0a47" d="M 122.5,120.5 C 122.833,120.5 123.167,120.5 123.5,120.5C 127.702,128.895 125.868,135.562 118,140.5C 117.536,141.094 117.369,141.761 117.5,142.5C 116.508,142.672 115.842,142.338 115.5,141.5C 117.64,138.835 120.14,136.502 123,134.5C 123.648,129.796 123.481,125.129 122.5,120.5 Z"/></g>
<g><path style="opacity:1" fill="#9289e0" d="M 248.5,139.5 C 247.636,140.688 246.636,141.855 245.5,143C 244.365,143.749 243.365,143.583 242.5,142.5C 244.088,138.59 246.421,135.257 249.5,132.5C 249.833,133.167 250.167,133.833 250.5,134.5C 249.813,136.177 249.146,137.844 248.5,139.5 Z"/></g>
<g><path style="opacity:1" fill="#948de2" d="M 310.5,132.5 C 311.496,132.414 312.329,132.748 313,133.5C 315.22,136.54 316.72,139.873 317.5,143.5C 316.325,143.719 315.325,143.386 314.5,142.5C 313.197,140.032 311.697,137.699 310,135.5C 309.53,134.423 309.697,133.423 310.5,132.5 Z"/></g>
<g><path style="opacity:1" fill="#291b45" d="M 85.5,136.5 C 86.9473,137.622 87.9473,139.122 88.5,141C 89.0944,141.464 89.7611,141.631 90.5,141.5C 94.1172,142.657 97.7839,142.657 101.5,141.5C 101.5,142.5 101.5,143.5 101.5,144.5C 100.833,144.5 100.167,144.5 99.5,144.5C 95.7016,143.517 91.7016,143.183 87.5,143.5C 86.6814,141.228 86.0147,138.894 85.5,136.5 Z"/></g>
<g><path style="opacity:1" fill="#8e7ae2" d="M 319.5,15.5 C 339.986,27.1981 352.153,44.8647 356,68.5C 358.519,113.508 338.353,142.508 295.5,155.5C 268.249,159.969 244.916,152.636 225.5,133.5C 226.5,133.5 227.5,133.5 228.5,133.5C 234.109,139.641 240.775,144.308 248.5,147.5C 268.581,156.193 288.914,156.693 309.5,149C 338.525,135.464 353.358,112.631 354,80.5C 349.934,81.4637 345.767,81.797 341.5,81.5C 341.5,80.5 341.5,79.5 341.5,78.5C 345.767,78.203 349.934,78.5363 354,79.5C 354.632,73.7858 354.299,68.1191 353,62.5C 347.434,42.7784 336.267,27.1117 319.5,15.5 Z"/></g>
<g><path style="opacity:1" fill="#9890e6" d="M 278.5,141.5 C 279.5,141.5 280.5,141.5 281.5,141.5C 281.5,145.5 281.5,149.5 281.5,153.5C 280.5,153.5 279.5,153.5 278.5,153.5C 278.5,149.5 278.5,145.5 278.5,141.5 Z"/></g>
<g><path style="opacity:1" fill="#36127f" d="M 175.5,151.5 C 173.578,156.68 172.245,162.013 171.5,167.5C 175.215,167.787 177.548,166.12 178.5,162.5C 180.225,162.843 180.725,163.843 180,165.5C 175.286,169.054 170.453,172.387 165.5,175.5C 166.038,173.883 166.371,172.216 166.5,170.5C 167.833,170.5 169.167,170.5 170.5,170.5C 170.567,168.599 170.233,166.766 169.5,165C 170.695,159.89 172.695,155.39 175.5,151.5 Z"/></g>
<g><path style="opacity:1" fill="#330a8b" d="M 205.5,97.5 C 206.384,100.023 207.218,102.69 208,105.5C 208.174,110.351 208.674,115.018 209.5,119.5C 211.378,128.041 216.712,132.708 225.5,133.5C 244.916,152.636 268.249,159.969 295.5,155.5C 290.069,157.103 284.402,158.103 278.5,158.5C 273.821,158.334 269.155,158.501 264.5,159C 266.653,159.099 268.319,159.933 269.5,161.5C 268.847,172.44 266.181,182.774 261.5,192.5C 257.53,181.961 253.863,171.294 250.5,160.5C 249.975,159.808 249.308,159.308 248.5,159C 245.5,158.333 242.5,158.333 239.5,159C 245.64,160.251 248.306,164.085 247.5,170.5C 245.974,169.895 244.974,168.729 244.5,167C 242.905,167.617 241.572,167.284 240.5,166C 241.841,164.705 243.174,164.205 244.5,164.5C 242.109,163.018 239.776,161.351 237.5,159.5C 235.524,170.075 235.024,180.742 236,191.5C 236.662,192.984 237.496,194.317 238.5,195.5C 236.248,195.084 234.748,193.751 234,191.5C 233.5,175.503 233.333,159.503 233.5,143.5C 229.958,143.187 226.625,143.521 223.5,144.5C 224.172,145.267 225.005,145.934 226,146.5C 226.833,162.177 226.666,177.844 225.5,193.5C 224.483,190.972 223.316,190.972 222,193.5C 221.259,192.359 220.425,192.359 219.5,193.5C 218.808,192.975 218.308,192.308 218,191.5C 217.5,174.837 217.333,158.17 217.5,141.5C 213.671,140.931 210.337,141.598 207.5,143.5C 208.063,144.625 209.23,145.959 211,147.5C 211.667,162.167 211.667,176.833 211,191.5C 210.722,192.416 210.222,193.082 209.5,193.5C 206.744,194.254 204.078,194.254 201.5,193.5C 198.724,188.846 196.724,183.846 195.5,178.5C 196.81,180.435 198.143,182.435 199.5,184.5C 200.185,181.342 201.185,178.342 202.5,175.5C 202.444,174.263 201.944,173.263 201,172.5C 199.365,166.3 200.699,160.967 205,156.5C 205.333,156.833 205.667,157.167 206,157.5C 206.667,165.167 206.667,172.833 206,180.5C 204.423,182.901 203.589,185.234 203.5,187.5C 205.056,189.701 206.223,189.701 207,187.5C 207.333,189.167 207.667,190.833 208,192.5C 208.767,188.442 208.6,184.442 207.5,180.5C 208.074,178.941 208.74,177.441 209.5,176C 208.845,166.227 208.178,156.393 207.5,146.5C 206.119,146 205.453,145 205.5,143.5C 206.833,141.5 206.833,139.5 205.5,137.5C 206.021,133.615 208.021,132.281 211.5,133.5C 214.187,131.606 214.187,130.939 211.5,131.5C 211.085,128.921 209.752,127.087 207.5,126C 207.833,125.667 208.167,125.333 208.5,125C 207.833,121.333 207.167,117.667 206.5,114C 204.939,113.682 203.772,112.849 203,111.5C 202.333,114.5 202.333,117.5 203,120.5C 203.414,120.043 203.914,119.709 204.5,119.5C 206.885,120.813 207.052,122.48 205,124.5C 204.241,122.937 203.074,121.937 201.5,121.5C 201.334,113.826 201.5,106.159 202,98.5C 203.011,97.6634 204.178,97.33 205.5,97.5 Z"/></g>
<g><path style="opacity:1" fill="#87d4ed" d="M 112.5,142.5 C 113.209,141.596 114.209,141.263 115.5,141.5C 115.842,142.338 116.508,142.672 117.5,142.5C 118.117,144.229 119.117,145.729 120.5,147C 127.277,150.259 134.277,152.926 141.5,155C 143.618,156.049 145.284,157.549 146.5,159.5C 148.693,164.583 150.36,169.916 151.5,175.5C 150.775,176.867 150.108,178.2 149.5,179.5C 148.833,179.5 148.5,179.833 148.5,180.5C 143.952,182.357 139.452,184.357 135,186.5C 134.502,189.482 134.335,192.482 134.5,195.5C 122.472,194.095 110.472,192.428 98.5,190.5C 95.5318,191.162 92.5318,191.495 89.5,191.5C 87.2341,191.141 85.4007,191.808 84,193.5C 83.6667,189.167 83.3333,184.833 83,180.5C 82.5831,181.756 81.7498,182.423 80.5,182.5C 77.8069,181.448 75.1402,180.448 72.5,179.5C 72.573,177.973 71.9063,176.973 70.5,176.5C 73.6799,168.641 78.0132,161.474 83.5,155C 87.0421,153.725 90.3755,152.225 93.5,150.5C 94.5832,150.461 95.5832,150.127 96.5,149.5C 97.3249,147.64 98.3249,145.974 99.5,144.5C 100.167,144.5 100.833,144.5 101.5,144.5C 103.857,145.861 105.524,147.861 106.5,150.5C 107.452,148.955 107.785,147.288 107.5,145.5C 109.564,145.313 111.564,144.813 113.5,144C 114.712,142.893 114.379,142.393 112.5,142.5 Z"/></g>
<g><path style="opacity:1" fill="#f6e6fc" d="M 278.5,158.5 C 274.255,160.424 271.921,163.757 271.5,168.5C 270.833,166.167 270.167,163.833 269.5,161.5C 268.319,159.933 266.653,159.099 264.5,159C 269.155,158.501 273.821,158.334 278.5,158.5 Z"/></g>
<g><path style="opacity:1" fill="#b191e8" d="M 178.5,146.5 C 178.629,148.216 178.962,149.883 179.5,151.5C 178.624,151.369 177.957,151.702 177.5,152.5C 176.03,156.912 174.363,161.245 172.5,165.5C 172.833,165.833 173.167,166.167 173.5,166.5C 175.185,165.047 176.851,163.714 178.5,162.5C 177.548,166.12 175.215,167.787 171.5,167.5C 172.245,162.013 173.578,156.68 175.5,151.5C 176.687,149.928 177.687,148.261 178.5,146.5 Z"/></g>
<g><path style="opacity:1" fill="#efe5f7" d="M 195.5,178.5 C 196.724,183.846 198.724,188.846 201.5,193.5C 202.058,194.79 203.058,195.623 204.5,196C 198.843,196.499 193.176,196.666 187.5,196.5C 187.5,196.167 187.5,195.833 187.5,195.5C 191.099,196.062 193.099,194.562 193.5,191C 192.368,185.628 190.701,180.461 188.5,175.5C 188.065,172.843 187.065,170.509 185.5,168.5C 183.202,162.912 181.202,157.245 179.5,151.5C 178.962,149.883 178.629,148.216 178.5,146.5C 178.176,143.306 179.342,142.306 182,143.5C 186.234,155.384 190.734,167.05 195.5,178.5 Z"/></g>
<g><path style="opacity:1" fill="#a988e0" d="M 269.5,161.5 C 270.167,163.833 270.833,166.167 271.5,168.5C 270.525,171.067 269.858,173.733 269.5,176.5C 267.451,182.932 265.118,189.266 262.5,195.5C 262.443,194.391 262.11,193.391 261.5,192.5C 266.181,182.774 268.847,172.44 269.5,161.5 Z"/></g>
<g><path style="opacity:1" fill="#2e0b85" d="M 93.5,150.5 C 90.3755,152.225 87.0421,153.725 83.5,155C 78.0132,161.474 73.6799,168.641 70.5,176.5C 71.9251,179.907 71.2585,182.907 68.5,185.5C 67.5832,184.873 66.5832,184.539 65.5,184.5C 62.8333,180.167 60.1667,175.833 57.5,171.5C 40.9952,170.173 24.3286,170.173 7.5,171.5C 7.62358,172.107 7.95691,172.44 8.5,172.5C 10.1961,175.85 11.8627,179.183 13.5,182.5C 12.3303,180.721 10.6636,179.721 8.5,179.5C 8.5145,176.373 7.5145,173.707 5.5,171.5C 5.52884,169.971 6.19551,168.804 7.5,168C 6.04392,167.577 5.54392,166.744 6,165.5C 7.25471,166.211 8.42138,167.044 9.5,168C 25.8333,168.333 42.1667,168.667 58.5,169C 60.1066,170.049 60.7733,171.549 60.5,173.5C 61.5,173.5 62.5,173.5 63.5,173.5C 63.7007,169.65 65.5341,168.65 69,170.5C 72.1152,169.104 72.9486,166.937 71.5,164C 71.8333,163.5 72.1667,163 72.5,162.5C 73.7202,163.711 74.8869,163.711 76,162.5C 76.869,159.67 78.0357,157.003 79.5,154.5C 83.8557,152.037 88.5223,150.703 93.5,150.5 Z"/></g>
<g><path style="opacity:1" fill="#9d8cbd" d="M 57.5,171.5 C 40.9915,171.17 24.6581,171.504 8.5,172.5C 7.95691,172.44 7.62358,172.107 7.5,171.5C 24.3286,170.173 40.9952,170.173 57.5,171.5 Z"/></g>
<g><path style="opacity:1" fill="#361180" d="M 179.5,151.5 C 181.202,157.245 183.202,162.912 185.5,168.5C 185.875,175.731 184.875,182.731 182.5,189.5C 181.5,190.167 180.5,190.833 179.5,191.5C 179.989,188.533 181.155,185.867 183,183.5C 183.499,178.511 183.666,173.511 183.5,168.5C 180.193,170.12 176.86,171.787 173.5,173.5C 176.438,171.066 179.271,168.399 182,165.5C 182.661,161.983 181.495,160.983 178.5,162.5C 176.851,163.714 175.185,165.047 173.5,166.5C 173.167,166.167 172.833,165.833 172.5,165.5C 174.363,161.245 176.03,156.912 177.5,152.5C 177.957,151.702 178.624,151.369 179.5,151.5 Z"/></g>
<g><path style="opacity:1" fill="#fbfafb" d="M 57.5,171.5 C 60.1667,175.833 62.8333,180.167 65.5,184.5C 67.1723,187.022 68.6723,189.688 70,192.5C 71.0503,188.197 71.8836,183.863 72.5,179.5C 75.1402,180.448 77.8069,181.448 80.5,182.5C 81.7202,187.455 81.7202,192.455 80.5,197.5C 79.1851,198.476 77.8518,199.476 76.5,200.5C 75.6667,199.5 74.8333,198.5 74,197.5C 74.1503,199.506 74.6503,201.506 75.5,203.5C 58.8333,203.5 42.1667,203.5 25.5,203.5C 25.6716,202.508 25.3382,201.842 24.5,201.5C 22.8308,197.862 20.8308,194.528 18.5,191.5C 17.5903,188.008 15.9236,185.008 13.5,182.5C 11.8627,179.183 10.1961,175.85 8.5,172.5C 24.6581,171.504 40.9915,171.17 57.5,171.5 Z"/></g>
<g><path style="opacity:1" fill="#eee3f7" d="M 261.5,192.5 C 262.11,193.391 262.443,194.391 262.5,195.5C 260.844,203.98 257.177,211.48 251.5,218C 248.5,218.667 245.5,218.667 242.5,218C 251.332,214.209 257.332,207.709 260.5,198.5C 258.541,197.252 257.041,195.585 256,193.5C 254.725,189.958 253.225,186.625 251.5,183.5C 250.939,178.824 249.606,174.491 247.5,170.5C 248.306,164.085 245.64,160.251 239.5,159C 242.5,158.333 245.5,158.333 248.5,159C 249.308,159.308 249.975,159.808 250.5,160.5C 253.863,171.294 257.53,181.961 261.5,192.5 Z"/></g>
<g><path style="opacity:1" fill="#b395e7" d="M 185.5,168.5 C 187.065,170.509 188.065,172.843 188.5,175.5C 186.763,178.008 185.93,181.008 186,184.5C 185.059,186.727 183.892,188.727 182.5,190.5C 182.5,190.167 182.5,189.833 182.5,189.5C 184.875,182.731 185.875,175.731 185.5,168.5 Z"/></g>
<g><path style="opacity:1" fill="#8fbaf4" d="M 146.5,159.5 C 148.68,161.863 150.347,164.53 151.5,167.5C 151.571,170.311 152.238,172.978 153.5,175.5C 153.084,177.715 151.75,179.049 149.5,179.5C 150.108,178.2 150.775,176.867 151.5,175.5C 150.36,169.916 148.693,164.583 146.5,159.5 Z"/></g>
<g><path style="opacity:1" fill="#f6effb" d="M 223.5,144.5 C 226.625,143.521 229.958,143.187 233.5,143.5C 233.333,159.503 233.5,175.503 234,191.5C 234.748,193.751 236.248,195.084 238.5,195.5C 233.695,196.487 228.695,196.821 223.5,196.5C 225.593,195.942 227.093,194.609 228,192.5C 228.667,177.167 228.667,161.833 228,146.5C 226.89,144.963 225.39,144.297 223.5,144.5 Z"/></g>
<g><path style="opacity:1" fill="#e0cef0" d="M 178.5,162.5 C 181.495,160.983 182.661,161.983 182,165.5C 179.271,168.399 176.438,171.066 173.5,173.5C 166.93,176.301 164.264,181.301 165.5,188.5C 164.691,186.708 164.191,184.708 164,182.5C 161.298,184.043 160.132,186.376 160.5,189.5C 159.378,187.712 159.211,185.712 160,183.5C 161.273,180.403 163.107,177.736 165.5,175.5C 170.453,172.387 175.286,169.054 180,165.5C 180.725,163.843 180.225,162.843 178.5,162.5 Z"/></g>
<g><path style="opacity:1" fill="#f8fafa" d="M 148.5,180.5 C 147.899,187.507 147.233,194.507 146.5,201.5C 145.662,201.842 145.328,202.508 145.5,203.5C 134.833,203.5 124.167,203.5 113.5,203.5C 108.933,200.631 104.433,197.631 100,194.5C 98.8906,196.815 97.0573,198.315 94.5,199C 91.5,199.333 88.5,199.667 85.5,200C 84.5842,200.278 83.9175,200.778 83.5,201.5C 83.1667,201.5 82.8333,201.5 82.5,201.5C 81.1266,201.657 79.7932,201.49 78.5,201C 79.8228,200.184 80.4894,199.017 80.5,197.5C 83.3649,195.239 86.3649,193.239 89.5,191.5C 92.5318,191.495 95.5318,191.162 98.5,190.5C 110.472,192.428 122.472,194.095 134.5,195.5C 134.335,192.482 134.502,189.482 135,186.5C 139.452,184.357 143.952,182.357 148.5,180.5 Z"/></g>
<g><path style="opacity:1" fill="#7292a5" d="M 89.5,191.5 C 86.3649,193.239 83.3649,195.239 80.5,197.5C 81.7202,192.455 81.7202,187.455 80.5,182.5C 81.7498,182.423 82.5831,181.756 83,180.5C 83.3333,184.833 83.6667,189.167 84,193.5C 85.4007,191.808 87.2341,191.141 89.5,191.5 Z"/></g>
<g><path style="opacity:1" fill="#30048b" d="M 179.5,191.5 C 175.708,195.06 171.541,195.394 167,192.5C 166.209,191.255 165.709,189.922 165.5,188.5C 164.264,181.301 166.93,176.301 173.5,173.5C 176.86,171.787 180.193,170.12 183.5,168.5C 183.666,173.511 183.499,178.511 183,183.5C 181.155,185.867 179.989,188.533 179.5,191.5 Z"/></g>
<g><path style="opacity:1" fill="#3c2171" d="M 13.5,182.5 C 15.9236,185.008 17.5903,188.008 18.5,191.5C 17.6236,191.631 16.9569,191.298 16.5,190.5C 14.9423,188.009 13.9423,185.343 13.5,182.5 Z"/></g>
<g><path style="opacity:1" fill="#151515" d="M 38.5,185.5 C 43.0057,184.527 45.1724,186.194 45,190.5C 38.6446,194.201 36.4779,192.534 38.5,185.5 Z"/></g>
<g><path style="opacity:1" fill="#381c70" d="M 70.5,176.5 C 71.9063,176.973 72.573,177.973 72.5,179.5C 71.8836,183.863 71.0503,188.197 70,192.5C 68.6723,189.688 67.1723,187.022 65.5,184.5C 66.5832,184.539 67.5832,184.873 68.5,185.5C 71.2585,182.907 71.9251,179.907 70.5,176.5 Z"/></g>
<g><path style="opacity:1" fill="#f4ebfb" d="M 207.5,143.5 C 210.5,143.5 213.5,143.5 216.5,143.5C 216.333,160.17 216.5,176.837 217,193.5C 217.903,194.701 219.069,195.535 220.5,196C 215.833,196.667 211.167,196.667 206.5,196C 207.942,195.623 208.942,194.79 209.5,193.5C 210.222,193.082 210.722,192.416 211,191.5C 211.667,176.833 211.667,162.167 211,147.5C 209.23,145.959 208.063,144.625 207.5,143.5 Z"/></g>
<g><path style="opacity:1" fill="#2f0b7a" d="M 223.5,144.5 C 225.39,144.297 226.89,144.963 228,146.5C 228.667,161.833 228.667,177.167 228,192.5C 227.093,194.609 225.593,195.942 223.5,196.5C 222.527,196.987 221.527,197.487 220.5,198C 209.298,198.723 198.298,198.223 187.5,196.5C 193.176,196.666 198.843,196.499 204.5,196C 203.058,195.623 202.058,194.79 201.5,193.5C 204.078,194.254 206.744,194.254 209.5,193.5C 208.942,194.79 207.942,195.623 206.5,196C 211.167,196.667 215.833,196.667 220.5,196C 219.069,195.535 217.903,194.701 217,193.5C 216.5,176.837 216.333,160.17 216.5,143.5C 213.5,143.5 210.5,143.5 207.5,143.5C 210.337,141.598 213.671,140.931 217.5,141.5C 217.333,158.17 217.5,174.837 218,191.5C 218.308,192.308 218.808,192.975 219.5,193.5C 220.425,192.359 221.259,192.359 222,193.5C 223.316,190.972 224.483,190.972 225.5,193.5C 226.666,177.844 226.833,162.177 226,146.5C 225.005,145.934 224.172,145.267 223.5,144.5 Z"/></g>
<g><path style="opacity:1" fill="#7ea3ae" d="M 113.5,203.5 C 112.833,203.5 112.167,203.5 111.5,203.5C 105.4,198.304 98.7333,197.47 91.5,201C 95.9558,200.898 99.9558,201.732 103.5,203.5C 96.8333,202.833 90.1667,202.167 83.5,201.5C 83.9175,200.778 84.5842,200.278 85.5,200C 88.5,199.667 91.5,199.333 94.5,199C 97.0573,198.315 98.8906,196.815 100,194.5C 104.433,197.631 108.933,200.631 113.5,203.5 Z"/></g>
<g><path style="opacity:1" fill="#a5a8a8" d="M 80.5,197.5 C 80.4894,199.017 79.8228,200.184 78.5,201C 79.7932,201.49 81.1266,201.657 82.5,201.5C 80.7768,202.807 78.9435,202.807 77,201.5C 76.7216,202.416 76.2216,203.082 75.5,203.5C 74.6503,201.506 74.1503,199.506 74,197.5C 74.8333,198.5 75.6667,199.5 76.5,200.5C 77.8518,199.476 79.1851,198.476 80.5,197.5 Z"/></g>
<g><path style="opacity:1" fill="#95d3e6" d="M 111.5,203.5 C 108.833,203.5 106.167,203.5 103.5,203.5C 99.9558,201.732 95.9558,200.898 91.5,201C 98.7333,197.47 105.4,198.304 111.5,203.5 Z"/></g>
<g><path style="opacity:1" fill="#14072d" d="M 24.5,201.5 C 25.3382,201.842 25.6716,202.508 25.5,203.5C 45.1553,204.833 65.1553,205.5 85.5,205.5C 105.845,205.5 125.845,204.833 145.5,203.5C 145.328,202.508 145.662,201.842 146.5,201.5C 146.5,202.833 147.167,203.5 148.5,203.5C 149.091,204.151 149.757,204.818 150.5,205.5C 101.167,206.833 51.8333,206.833 2.5,205.5C 9.65532,204.833 16.6553,204.167 23.5,203.5C 24.3382,203.158 24.6716,202.492 24.5,201.5 Z"/></g>
<g><path style="opacity:1" fill="#212123" d="M 82.5,201.5 C 82.8333,201.5 83.1667,201.5 83.5,201.5C 90.1667,202.167 96.8333,202.833 103.5,203.5C 106.167,203.5 108.833,203.5 111.5,203.5C 112.167,203.5 112.833,203.5 113.5,203.5C 124.167,203.5 134.833,203.5 145.5,203.5C 125.845,204.833 105.845,205.5 85.5,205.5C 65.1553,205.5 45.1553,204.833 25.5,203.5C 42.1667,203.5 58.8333,203.5 75.5,203.5C 76.2216,203.082 76.7216,202.416 77,201.5C 78.9435,202.807 80.7768,202.807 82.5,201.5 Z"/></g>
<g><path style="opacity:1" fill="#2f0585" d="M 151.5,167.5 C 153.602,171.316 156.436,174.65 160,177.5C 161.401,175.808 163.234,175.141 165.5,175.5C 163.107,177.736 161.273,180.403 160,183.5C 159.211,185.712 159.378,187.712 160.5,189.5C 161.052,195.215 164.218,197.882 170,197.5C 175.442,197.364 179.608,195.031 182.5,190.5C 183.892,188.727 185.059,186.727 186,184.5C 185.93,181.008 186.763,178.008 188.5,175.5C 190.701,180.461 192.368,185.628 193.5,191C 193.099,194.562 191.099,196.062 187.5,195.5C 186.603,196.598 185.77,196.598 185,195.5C 184,198.167 183,198.167 182,195.5C 175.296,198.944 168.462,199.277 161.5,196.5C 158.471,198.695 155.971,201.362 154,204.5C 153.505,206.473 153.338,208.473 153.5,210.5C 102.077,209.504 50.7435,209.171 -0.5,209.5C -0.5,207.5 -0.5,205.5 -0.5,203.5C 0.166667,203.5 0.833333,203.5 1.5,203.5C 0.765886,204.708 0.432553,206.041 0.5,207.5C 50.8333,207.5 101.167,207.5 151.5,207.5C 151.5,206.167 151.5,204.833 151.5,203.5C 150.5,203.5 149.5,203.5 148.5,203.5C 147.167,203.5 146.5,202.833 146.5,201.5C 147.233,194.507 147.899,187.507 148.5,180.5C 148.5,179.833 148.833,179.5 149.5,179.5C 151.75,179.049 153.084,177.715 153.5,175.5C 152.238,172.978 151.571,170.311 151.5,167.5 Z"/></g>
<g><path style="opacity:1" fill="#20094a" d="M 1.5,203.5 C 8.83333,203.5 16.1667,203.5 23.5,203.5C 16.6553,204.167 9.65532,204.833 2.5,205.5C 51.8333,206.833 101.167,206.833 150.5,205.5C 149.757,204.818 149.091,204.151 148.5,203.5C 149.5,203.5 150.5,203.5 151.5,203.5C 151.5,204.833 151.5,206.167 151.5,207.5C 101.167,207.5 50.8333,207.5 0.5,207.5C 0.432553,206.041 0.765886,204.708 1.5,203.5 Z"/></g>
<g><path style="opacity:1" fill="#f6ebfc" d="M 165.5,188.5 C 165.709,189.922 166.209,191.255 167,192.5C 171.541,195.394 175.708,195.06 179.5,191.5C 180.5,190.833 181.5,190.167 182.5,189.5C 182.5,189.833 182.5,190.167 182.5,190.5C 179.608,195.031 175.442,197.364 170,197.5C 164.218,197.882 161.052,195.215 160.5,189.5C 160.132,186.376 161.298,184.043 164,182.5C 164.191,184.708 164.691,186.708 165.5,188.5 Z"/></g>
<g><path style="opacity:1" fill="#330c82" d="M 269.5,176.5 C 268.92,180.81 268.586,185.143 268.5,189.5C 269.675,189.281 270.675,189.614 271.5,190.5C 270.265,193.044 269.099,193.044 268,190.5C 264.799,193.678 263.965,197.344 265.5,201.5C 264.675,202.386 263.675,202.719 262.5,202.5C 262.657,203.873 262.49,205.207 262,206.5C 258.955,208.675 257.789,211.675 258.5,215.5C 257.448,215.351 256.448,215.517 255.5,216C 253.509,219.486 250.509,220.986 246.5,220.5C 244.359,220.387 242.525,219.72 241,218.5C 239.636,219.258 238.469,218.758 237.5,217C 239.219,215.943 241.053,215.11 243,214.5C 246.062,216.13 247.729,215.13 248,211.5C 248.893,212.711 249.726,212.711 250.5,211.5C 249.371,209.471 249.871,209.137 252,210.5C 252.97,207.256 254.137,204.09 255.5,201C 255.241,199.739 254.574,198.739 253.5,198C 254.167,197.667 254.833,197.333 255.5,197C 253.167,195.757 252.5,194.091 253.5,192C 252.287,189.313 251.62,186.48 251.5,183.5C 253.225,186.625 254.725,189.958 256,193.5C 257.041,195.585 258.541,197.252 260.5,198.5C 257.332,207.709 251.332,214.209 242.5,218C 245.5,218.667 248.5,218.667 251.5,218C 257.177,211.48 260.844,203.98 262.5,195.5C 265.118,189.266 267.451,182.932 269.5,176.5 Z"/></g>
</svg>
